<svg width="273" height="85" viewBox="0 0 273 85" fill="none" xmlns="http://www.w3.org/2000/svg">
<path d="M7.125 46.3125V35.25H23.7188C27.7812 35.25 30.9375 34.2188 33.1875 32.1562C35.4688 30.0625 36.6094 27.0938 36.6094 23.25V23.1562C36.6094 19.3125 35.4688 16.3594 33.1875 14.2969C30.9375 12.2344 27.7812 11.2031 23.7188 11.2031H7.125V0H27.1875C31.9375 0 36.0938 0.96875 39.6562 2.90625C43.2188 4.8125 45.9844 7.5 47.9531 10.9688C49.9531 14.4375 50.9531 18.4844 50.9531 23.1094V23.2031C50.9531 27.8594 49.9531 31.9219 47.9531 35.3906C45.9844 38.8594 43.2188 41.5469 39.6562 43.4531C36.0938 45.3594 31.9375 46.3125 27.1875 46.3125H7.125ZM0 67.6406V0H14.1562V67.6406H0ZM75.6813 68.6719C71.9938 68.6719 68.8531 67.9219 66.2594 66.4219C63.6969 64.8906 61.7281 62.7188 60.3531 59.9062C59.0094 57.0938 58.3375 53.7344 58.3375 49.8281V17.3906H72.025V46.9688C72.025 50.25 72.7906 52.7969 74.3219 54.6094C75.8844 56.4219 78.1969 57.3281 81.2594 57.3281C82.7906 57.3281 84.1656 57.0625 85.3844 56.5312C86.6344 56 87.6969 55.25 88.5719 54.2812C89.4469 53.2812 90.1188 52.1094 90.5875 50.7656C91.0563 49.3906 91.2906 47.8906 91.2906 46.2656V17.3906H104.978V67.6406H91.2906V59.3438H91.0094C90.1344 61.25 88.9781 62.9062 87.5406 64.3125C86.1344 65.7188 84.4313 66.7969 82.4313 67.5469C80.4625 68.2969 78.2125 68.6719 75.6813 68.6719ZM114.284 67.6406V17.3906H127.972V26.1562H128.253C129.003 23.0625 130.363 20.6562 132.331 18.9375C134.3 17.2187 136.753 16.3594 139.691 16.3594C140.441 16.3594 141.159 16.4062 141.847 16.5C142.534 16.5938 143.128 16.7188 143.628 16.875V28.9219C143.066 28.7031 142.347 28.5312 141.472 28.4062C140.597 28.25 139.659 28.1719 138.659 28.1719C136.409 28.1719 134.488 28.6094 132.894 29.4844C131.3 30.3594 130.081 31.6406 129.238 33.3281C128.394 35.0156 127.972 37.0781 127.972 39.5156V67.6406H114.284ZM170.934 68.6719C165.809 68.6719 161.403 67.625 157.716 65.5312C154.028 63.4062 151.184 60.3906 149.184 56.4844C147.216 52.5781 146.231 47.9531 146.231 42.6094V42.5625C146.231 37.2188 147.216 32.5938 149.184 28.6875C151.184 24.75 153.981 21.7188 157.575 19.5938C161.2 17.4375 165.466 16.3594 170.372 16.3594C175.278 16.3594 179.512 17.4062 183.075 19.5C186.669 21.5625 189.434 24.4844 191.372 28.2656C193.341 32.0469 194.325 36.4688 194.325 41.5312V45.75H152.934V37.125H187.856L181.341 45.1875V39.9375C181.341 37 180.887 34.5469 179.981 32.5781C179.075 30.5781 177.809 29.0781 176.184 28.0781C174.591 27.0781 172.731 26.5781 170.606 26.5781C168.481 26.5781 166.591 27.0938 164.934 28.125C163.309 29.1562 162.028 30.6719 161.091 32.6719C160.184 34.6406 159.731 37.0625 159.731 39.9375V45.2344C159.731 48.0156 160.184 50.3906 161.091 52.3594C162.028 54.3281 163.356 55.8438 165.075 56.9062C166.794 57.9375 168.841 58.4531 171.216 58.4531C173.091 58.4531 174.716 58.1562 176.091 57.5625C177.466 56.9688 178.591 56.2188 179.466 55.3125C180.341 54.4062 180.934 53.4844 181.247 52.5469L181.341 52.2656H193.903L193.762 52.7812C193.387 54.625 192.653 56.4844 191.559 58.3594C190.466 60.2344 188.981 61.9531 187.106 63.5156C185.262 65.0781 182.997 66.3281 180.309 67.2656C177.653 68.2031 174.528 68.6719 170.934 68.6719ZM202.131 67.6406V0H215.819V67.6406H202.131ZM233.328 84.1875C231.984 84.1875 230.688 84.125 229.438 84C228.188 83.875 227.156 83.7344 226.344 83.5781V73.4062C226.844 73.5 227.484 73.5938 228.266 73.6875C229.047 73.8125 229.938 73.875 230.938 73.875C233 73.875 234.625 73.5312 235.812 72.8438C237 72.1562 237.891 70.9688 238.484 69.2812L239.094 67.6406L221.328 17.3906H236.375L247.719 59.3906L245.891 56.6719H248.469L246.641 59.3906L257.984 17.3906H272.422L255.172 68.5312C253.859 72.4688 252.203 75.5781 250.203 77.8594C248.234 80.1406 245.859 81.7656 243.078 82.7344C240.297 83.7031 237.047 84.1875 233.328 84.1875Z" fill="#FFED86"/>
</svg>
