<svg width="301" height="96" viewBox="0 0 301 96" fill="none" xmlns="http://www.w3.org/2000/svg">
<mask id="path-1-outside-1_787_2064" maskUnits="userSpaceOnUse" x="-0.0683594" y="-0.181885" width="301" height="96" fill="black">
<rect fill="white" x="-0.0683594" y="-0.181885" width="301" height="96"/>
<path d="M2.99982 72.8181V2.99993H30.5453C35.8407 2.99993 40.3521 4.0113 44.0794 6.03402C47.8066 8.03402 50.6476 10.8181 52.6021 14.3863C54.5794 17.9317 55.568 22.0227 55.568 26.659C55.568 31.2954 54.568 35.3863 52.568 38.9318C50.568 42.4772 47.6703 45.2386 43.8748 47.2158C40.1021 49.1931 35.5339 50.1818 30.1703 50.1818H12.6135V38.3522H27.7839C30.6248 38.3522 32.9657 37.8636 34.8066 36.8863C36.6703 35.8863 38.0566 34.5113 38.9657 32.7613C39.8976 30.9886 40.3635 28.9545 40.3635 26.659C40.3635 24.3408 39.8976 22.3181 38.9657 20.5908C38.0566 18.8408 36.6703 17.4886 34.8066 16.534C32.943 15.5568 30.5794 15.0681 27.7157 15.0681H17.7612V72.8181H2.99982ZM98.8629 50.5227V20.4545H113.386V72.8181H99.4424V63.3068H98.897C97.7152 66.3749 95.7493 68.8408 92.9993 70.7045C90.272 72.5681 86.9424 73.4999 83.0106 73.4999C79.5106 73.4999 76.4311 72.7045 73.772 71.1136C71.1129 69.5227 69.0333 67.2613 67.5333 64.3295C66.0561 61.3977 65.3061 57.8863 65.2833 53.7954V20.4545H79.8061V51.2045C79.8288 54.2954 80.6583 56.7386 82.2947 58.534C83.9311 60.3295 86.1243 61.2272 88.8743 61.2272C90.6243 61.2272 92.2606 60.8295 93.7833 60.034C95.3061 59.2158 96.5333 58.0113 97.4652 56.4204C98.4197 54.8295 98.8856 52.8636 98.8629 50.5227ZM125.402 72.8181V20.4545H139.482V29.5908H140.027C140.982 26.3408 142.584 23.8863 144.834 22.2272C147.084 20.5454 149.675 19.7045 152.607 19.7045C153.334 19.7045 154.118 19.7499 154.959 19.8408C155.8 19.9318 156.538 20.0568 157.175 20.2158V33.1022C156.493 32.8977 155.55 32.7158 154.345 32.5568C153.141 32.3977 152.038 32.3181 151.038 32.3181C148.902 32.3181 146.993 32.784 145.311 33.7158C143.652 34.6249 142.334 35.8977 141.357 37.534C140.402 39.1704 139.925 41.0568 139.925 43.1931V72.8181H125.402ZM186.509 73.8408C181.123 73.8408 176.487 72.7499 172.6 70.5681C168.737 68.3636 165.759 65.2499 163.669 61.2272C161.578 57.1818 160.532 52.3977 160.532 46.8749C160.532 41.4886 161.578 36.7613 163.669 32.6931C165.759 28.6249 168.703 25.4545 172.498 23.1817C176.316 20.909 180.794 19.7727 185.93 19.7727C189.384 19.7727 192.6 20.3295 195.578 21.4431C198.578 22.534 201.191 24.1818 203.419 26.3863C205.669 28.5908 207.419 31.3636 208.669 34.7045C209.919 38.0227 210.544 41.909 210.544 46.3636V50.3522H166.328V41.3522H196.873C196.873 39.2613 196.419 37.409 195.509 35.7954C194.6 34.1818 193.339 32.9204 191.725 32.0113C190.134 31.0795 188.282 30.6136 186.169 30.6136C183.964 30.6136 182.009 31.1249 180.305 32.1477C178.623 33.1477 177.305 34.4999 176.35 36.2045C175.396 37.8863 174.907 39.7613 174.884 41.8295V50.3863C174.884 52.9772 175.362 55.2158 176.316 57.1022C177.294 58.9886 178.669 60.4431 180.441 61.4658C182.214 62.4886 184.316 62.9999 186.748 62.9999C188.362 62.9999 189.839 62.7727 191.18 62.3181C192.521 61.8636 193.669 61.1818 194.623 60.2727C195.578 59.3636 196.305 58.2499 196.805 56.9318L210.237 57.8181C209.555 61.0454 208.157 63.8636 206.044 66.2727C203.953 68.659 201.248 70.5227 197.93 71.8636C194.634 73.1818 190.828 73.8408 186.509 73.8408ZM234.944 2.99993V72.8181H220.421V2.99993H234.944ZM255.943 92.4545C254.102 92.4545 252.375 92.3068 250.761 92.0113C249.17 91.7386 247.852 91.3863 246.807 90.9545L250.079 80.1136C251.784 80.6363 253.318 80.9204 254.682 80.9658C256.068 81.0113 257.261 80.6931 258.261 80.0113C259.284 79.3295 260.113 78.1704 260.75 76.534L261.602 74.3181L242.818 20.4545H258.091L268.932 58.909H269.477L280.42 20.4545H295.795L275.443 78.4772C274.466 81.2954 273.136 83.7499 271.454 85.8408C269.795 87.9545 267.693 89.5795 265.148 90.7158C262.602 91.8749 259.534 92.4545 255.943 92.4545Z"/>
</mask>
<path d="M2.99982 72.8181V2.99993H30.5453C35.8407 2.99993 40.3521 4.0113 44.0794 6.03402C47.8066 8.03402 50.6476 10.8181 52.6021 14.3863C54.5794 17.9317 55.568 22.0227 55.568 26.659C55.568 31.2954 54.568 35.3863 52.568 38.9318C50.568 42.4772 47.6703 45.2386 43.8748 47.2158C40.1021 49.1931 35.5339 50.1818 30.1703 50.1818H12.6135V38.3522H27.7839C30.6248 38.3522 32.9657 37.8636 34.8066 36.8863C36.6703 35.8863 38.0566 34.5113 38.9657 32.7613C39.8976 30.9886 40.3635 28.9545 40.3635 26.659C40.3635 24.3408 39.8976 22.3181 38.9657 20.5908C38.0566 18.8408 36.6703 17.4886 34.8066 16.534C32.943 15.5568 30.5794 15.0681 27.7157 15.0681H17.7612V72.8181H2.99982ZM98.8629 50.5227V20.4545H113.386V72.8181H99.4424V63.3068H98.897C97.7152 66.3749 95.7493 68.8408 92.9993 70.7045C90.272 72.5681 86.9424 73.4999 83.0106 73.4999C79.5106 73.4999 76.4311 72.7045 73.772 71.1136C71.1129 69.5227 69.0333 67.2613 67.5333 64.3295C66.0561 61.3977 65.3061 57.8863 65.2833 53.7954V20.4545H79.8061V51.2045C79.8288 54.2954 80.6583 56.7386 82.2947 58.534C83.9311 60.3295 86.1243 61.2272 88.8743 61.2272C90.6243 61.2272 92.2606 60.8295 93.7833 60.034C95.3061 59.2158 96.5333 58.0113 97.4652 56.4204C98.4197 54.8295 98.8856 52.8636 98.8629 50.5227ZM125.402 72.8181V20.4545H139.482V29.5908H140.027C140.982 26.3408 142.584 23.8863 144.834 22.2272C147.084 20.5454 149.675 19.7045 152.607 19.7045C153.334 19.7045 154.118 19.7499 154.959 19.8408C155.8 19.9318 156.538 20.0568 157.175 20.2158V33.1022C156.493 32.8977 155.55 32.7158 154.345 32.5568C153.141 32.3977 152.038 32.3181 151.038 32.3181C148.902 32.3181 146.993 32.784 145.311 33.7158C143.652 34.6249 142.334 35.8977 141.357 37.534C140.402 39.1704 139.925 41.0568 139.925 43.1931V72.8181H125.402ZM186.509 73.8408C181.123 73.8408 176.487 72.7499 172.6 70.5681C168.737 68.3636 165.759 65.2499 163.669 61.2272C161.578 57.1818 160.532 52.3977 160.532 46.8749C160.532 41.4886 161.578 36.7613 163.669 32.6931C165.759 28.6249 168.703 25.4545 172.498 23.1817C176.316 20.909 180.794 19.7727 185.93 19.7727C189.384 19.7727 192.6 20.3295 195.578 21.4431C198.578 22.534 201.191 24.1818 203.419 26.3863C205.669 28.5908 207.419 31.3636 208.669 34.7045C209.919 38.0227 210.544 41.909 210.544 46.3636V50.3522H166.328V41.3522H196.873C196.873 39.2613 196.419 37.409 195.509 35.7954C194.6 34.1818 193.339 32.9204 191.725 32.0113C190.134 31.0795 188.282 30.6136 186.169 30.6136C183.964 30.6136 182.009 31.1249 180.305 32.1477C178.623 33.1477 177.305 34.4999 176.35 36.2045C175.396 37.8863 174.907 39.7613 174.884 41.8295V50.3863C174.884 52.9772 175.362 55.2158 176.316 57.1022C177.294 58.9886 178.669 60.4431 180.441 61.4658C182.214 62.4886 184.316 62.9999 186.748 62.9999C188.362 62.9999 189.839 62.7727 191.18 62.3181C192.521 61.8636 193.669 61.1818 194.623 60.2727C195.578 59.3636 196.305 58.2499 196.805 56.9318L210.237 57.8181C209.555 61.0454 208.157 63.8636 206.044 66.2727C203.953 68.659 201.248 70.5227 197.93 71.8636C194.634 73.1818 190.828 73.8408 186.509 73.8408ZM234.944 2.99993V72.8181H220.421V2.99993H234.944ZM255.943 92.4545C254.102 92.4545 252.375 92.3068 250.761 92.0113C249.17 91.7386 247.852 91.3863 246.807 90.9545L250.079 80.1136C251.784 80.6363 253.318 80.9204 254.682 80.9658C256.068 81.0113 257.261 80.6931 258.261 80.0113C259.284 79.3295 260.113 78.1704 260.75 76.534L261.602 74.3181L242.818 20.4545H258.091L268.932 58.909H269.477L280.42 20.4545H295.795L275.443 78.4772C274.466 81.2954 273.136 83.7499 271.454 85.8408C269.795 87.9545 267.693 89.5795 265.148 90.7158C262.602 91.8749 259.534 92.4545 255.943 92.4545Z" fill="#FFED86"/>
<path d="M2.99982 72.8181H-0.000177622V75.8181H2.99982V72.8181ZM2.99982 2.99993V-6.86646e-05H-0.000177622V2.99993H2.99982ZM44.0794 6.03403L42.6484 8.67078L42.6547 8.67416L42.6609 8.67751L44.0794 6.03403ZM52.6021 14.3863L49.971 15.8275L49.9765 15.8375L49.982 15.8475L52.6021 14.3863ZM43.8748 47.2158L42.4888 44.5552L42.4822 44.5587L43.8748 47.2158ZM12.6135 50.1818H9.61346V53.1818H12.6135V50.1818ZM12.6135 38.3522V35.3522H9.61346V38.3522H12.6135ZM34.8066 36.8863L36.2133 39.5361L36.2251 39.5298L34.8066 36.8863ZM38.9657 32.7613L36.3102 31.3655L36.3069 31.3719L36.3035 31.3783L38.9657 32.7613ZM38.9657 20.5908L36.3035 21.9738L36.3143 21.9946L36.3254 22.0152L38.9657 20.5908ZM34.8066 16.534L33.4134 19.1909L33.4262 19.1976L33.439 19.2042L34.8066 16.534ZM17.7612 15.0681V12.0681H14.7612V15.0681H17.7612ZM17.7612 72.8181V75.8181H20.7612V72.8181H17.7612ZM2.99982 72.8181H5.99982V2.99993H2.99982H-0.000177622V72.8181H2.99982ZM2.99982 2.99993V5.99993H30.5453V2.99993V-6.86646e-05H2.99982V2.99993ZM30.5453 2.99993V5.99993C35.4632 5.99993 39.4566 6.93862 42.6484 8.67078L44.0794 6.03403L45.5103 3.39727C41.2476 1.08397 36.2183 -6.86646e-05 30.5453 -6.86646e-05V2.99993ZM44.0794 6.03403L42.6609 8.67751C45.8975 10.4142 48.3071 12.7901 49.971 15.8275L52.6021 14.3863L55.2332 12.945C52.988 8.84617 49.7158 5.65384 45.4978 3.39054L44.0794 6.03403ZM52.6021 14.3863L49.982 15.8475C51.6766 18.8861 52.568 22.4605 52.568 26.659H55.568H58.568C58.568 21.5848 57.4822 16.9774 55.2222 12.9251L52.6021 14.3863ZM55.568 26.659H52.568C52.568 30.8518 51.6678 34.4216 49.9551 37.4578L52.568 38.9318L55.1809 40.4057C57.4682 36.351 58.568 31.739 58.568 26.659H55.568ZM52.568 38.9318L49.9551 37.4578C48.2555 40.4706 45.7968 42.8319 42.4888 44.5552L43.8748 47.2158L45.2609 49.8764C49.5438 47.6453 52.8805 44.4838 55.1809 40.4057L52.568 38.9318ZM43.8748 47.2158L42.4822 44.5587C39.2362 46.2599 35.1718 47.1818 30.1703 47.1818V50.1818V53.1818C35.896 53.1818 40.9679 52.1264 45.2674 49.873L43.8748 47.2158ZM30.1703 50.1818V47.1818H12.6135V50.1818V53.1818H30.1703V50.1818ZM12.6135 50.1818H15.6135V38.3522H12.6135H9.61346V50.1818H12.6135ZM12.6135 38.3522V41.3522H27.7839V38.3522V35.3522H12.6135V38.3522ZM27.7839 38.3522V41.3522C30.9456 41.3522 33.8107 40.8115 36.2133 39.5361L34.8066 36.8863L33.4 34.2365C32.1208 34.9156 30.304 35.3522 27.7839 35.3522V38.3522ZM34.8066 36.8863L36.2251 39.5298C38.5802 38.2661 40.4201 36.4694 41.6279 34.1443L38.9657 32.7613L36.3035 31.3783C35.6932 32.5531 34.7604 33.5065 33.3882 34.2428L34.8066 36.8863ZM38.9657 32.7613L41.6212 34.1571C42.8104 31.8947 43.3635 29.3692 43.3635 26.659H40.3635H37.3635C37.3635 28.5398 36.9847 30.0824 36.3102 31.3655L38.9657 32.7613ZM40.3635 26.659H43.3635C43.3635 23.9337 42.8133 21.4044 41.606 19.1665L38.9657 20.5908L36.3254 22.0152C36.9818 23.2319 37.3635 24.748 37.3635 26.659H40.3635ZM38.9657 20.5908L41.6279 19.2079C40.4133 16.8696 38.5564 15.084 36.1743 13.8639L34.8066 16.534L33.439 19.2042C34.7842 19.8931 35.7 20.8121 36.3035 21.9738L38.9657 20.5908ZM34.8066 16.534L36.1999 13.8772C33.7797 12.608 30.8979 12.0681 27.7157 12.0681V15.0681V18.0681C30.2608 18.0681 32.1063 18.5055 33.4134 19.1909L34.8066 16.534ZM27.7157 15.0681V12.0681H17.7612V15.0681V18.0681H27.7157V15.0681ZM17.7612 15.0681H14.7612V72.8181H17.7612H20.7612V15.0681H17.7612ZM17.7612 72.8181V69.8181H2.99982V72.8181V75.8181H17.7612V72.8181ZM98.8629 50.5227H95.8629V50.5372L95.863 50.5518L98.8629 50.5227ZM98.8629 20.4545V17.4545H95.8629V20.4545H98.8629ZM113.386 20.4545H116.386V17.4545H113.386V20.4545ZM113.386 72.8181V75.8181H116.386V72.8181H113.386ZM99.4424 72.8181H96.4424V75.8181H99.4424V72.8181ZM99.4424 63.3068H102.442V60.3068H99.4424V63.3068ZM98.897 63.3068V60.3068H96.8377L96.0975 62.2284L98.897 63.3068ZM92.9993 70.7045L91.3162 68.221L91.3067 68.2275L92.9993 70.7045ZM73.772 71.1136L75.3122 68.5392V68.5392L73.772 71.1136ZM67.5333 64.3295L64.8542 65.6794L64.8584 65.6877L64.8626 65.6959L67.5333 64.3295ZM65.2833 53.7954H62.2833V53.8037L62.2834 53.8121L65.2833 53.7954ZM65.2833 20.4545V17.4545H62.2833V20.4545H65.2833ZM79.8061 20.4545H82.8061V17.4545H79.8061V20.4545ZM79.8061 51.2045H76.8061V51.2155L76.8062 51.2265L79.8061 51.2045ZM82.2947 58.534L84.512 56.5132V56.5132L82.2947 58.534ZM93.7833 60.034L95.1724 62.6931L95.1879 62.685L95.2033 62.6767L93.7833 60.034ZM97.4652 56.4204L94.8927 54.8769L94.8845 54.8905L94.8765 54.9042L97.4652 56.4204ZM98.8629 50.5227H101.863V20.4545H98.8629H95.8629V50.5227H98.8629ZM98.8629 20.4545V23.4545H113.386V20.4545V17.4545H98.8629V20.4545ZM113.386 20.4545H110.386V72.8181H113.386H116.386V20.4545H113.386ZM113.386 72.8181V69.8181H99.4424V72.8181V75.8181H113.386V72.8181ZM99.4424 72.8181H102.442V63.3068H99.4424H96.4424V72.8181H99.4424ZM99.4424 63.3068V60.3068H98.897V63.3068V66.3068H99.4424V63.3068ZM98.897 63.3068L96.0975 62.2284C95.1382 64.719 93.565 66.6971 91.3163 68.221L92.9993 70.7045L94.6823 73.1879C97.9335 70.9846 100.292 68.0309 101.696 64.3851L98.897 63.3068ZM92.9993 70.7045L91.3067 68.2275C89.1668 69.6898 86.4557 70.4999 83.0106 70.4999V73.4999V76.4999C87.4292 76.4999 91.3771 75.4465 94.6918 73.1814L92.9993 70.7045ZM83.0106 73.4999V70.4999C79.9812 70.4999 77.4478 69.8168 75.3122 68.5392L73.772 71.1136L72.2317 73.688C75.4143 75.5921 79.04 76.4999 83.0106 76.4999V73.4999ZM73.772 71.1136L75.3122 68.5392C73.1665 67.2554 71.4647 65.427 70.2041 62.9631L67.5333 64.3295L64.8626 65.6959C66.602 69.0955 69.0593 71.79 72.2317 73.688L73.772 71.1136ZM67.5333 64.3295L70.2125 62.9795C68.9886 60.5506 68.3041 57.5178 68.2833 53.7787L65.2833 53.7954L62.2834 53.8121C62.3081 58.2547 63.1236 62.2447 64.8542 65.6794L67.5333 64.3295ZM65.2833 53.7954H68.2833V20.4545H65.2833H62.2833V53.7954H65.2833ZM65.2833 20.4545V23.4545H79.8061V20.4545V17.4545H65.2833V20.4545ZM79.8061 20.4545H76.8061V51.2045H79.8061H82.8061V20.4545H79.8061ZM79.8061 51.2045L76.8062 51.2265C76.8328 54.8491 77.8182 58.0759 80.0774 60.5548L82.2947 58.534L84.512 56.5132C83.4985 55.4012 82.8248 53.7416 82.806 51.1824L79.8061 51.2045ZM82.2947 58.534L80.0774 60.5548C82.3603 63.0596 85.4036 64.2272 88.8743 64.2272V61.2272V58.2272C86.8449 58.2272 85.5019 57.5993 84.512 56.5132L82.2947 58.534ZM88.8743 61.2272V64.2272C91.0986 64.2272 93.2127 63.7168 95.1724 62.6931L93.7833 60.034L92.3943 57.375C91.3086 57.9422 90.1499 58.2272 88.8743 58.2272V61.2272ZM93.7833 60.034L95.2033 62.6767C97.2443 61.58 98.8627 59.9703 100.054 57.9366L97.4652 56.4204L94.8765 54.9042C94.204 56.0523 93.3678 56.8516 92.3634 57.3913L93.7833 60.034ZM97.4652 56.4204L100.038 57.9639C101.343 55.7886 101.889 53.2445 101.863 50.4935L98.8629 50.5227L95.863 50.5518C95.8818 52.4826 95.4966 53.8703 94.8927 54.8769L97.4652 56.4204ZM125.402 72.8181H122.402V75.8181H125.402V72.8181ZM125.402 20.4545V17.4545H122.402V20.4545H125.402ZM139.482 20.4545H142.482V17.4545H139.482V20.4545ZM139.482 29.5908H136.482V32.5908H139.482V29.5908ZM140.027 29.5908V32.5908H142.273L142.906 30.4362L140.027 29.5908ZM144.834 22.2272L146.614 24.6418L146.622 24.636L146.63 24.6301L144.834 22.2272ZM154.959 19.8408L155.281 16.8582H155.281L154.959 19.8408ZM157.175 20.2158H160.175V17.8735L157.902 17.3054L157.175 20.2158ZM157.175 33.1022L156.313 35.9757L160.175 37.1343V33.1022H157.175ZM145.311 33.7158L146.753 36.3468L146.765 36.34L145.311 33.7158ZM141.357 37.534L138.781 35.9958L138.773 36.0091L138.765 36.0224L141.357 37.534ZM139.925 72.8181V75.8181H142.925V72.8181H139.925ZM125.402 72.8181H128.402V20.4545H125.402H122.402V72.8181H125.402ZM125.402 20.4545V23.4545H139.482V20.4545V17.4545H125.402V20.4545ZM139.482 20.4545H136.482V29.5908H139.482H142.482V20.4545H139.482ZM139.482 29.5908V32.5908H140.027V29.5908V26.5908H139.482V29.5908ZM140.027 29.5908L142.906 30.4362C143.715 27.6785 144.996 25.835 146.614 24.6418L144.834 22.2272L143.053 19.8127C140.172 21.9376 138.248 25.0032 137.149 28.7454L140.027 29.5908ZM144.834 22.2272L146.63 24.6301C148.338 23.3537 150.292 22.7045 152.607 22.7045V19.7045V16.7045C149.058 16.7045 145.83 17.7371 143.038 19.8243L144.834 22.2272ZM152.607 19.7045V22.7045C153.211 22.7045 153.886 22.7423 154.636 22.8235L154.959 19.8408L155.281 16.8582C154.35 16.7575 153.457 16.7045 152.607 16.7045V19.7045ZM154.959 19.8408L154.636 22.8235C155.378 22.9036 155.976 23.0084 156.447 23.1263L157.175 20.2158L157.902 17.3054C157.101 17.1051 156.222 16.9599 155.281 16.8582L154.959 19.8408ZM157.175 20.2158H154.175V33.1022H157.175H160.175V20.2158H157.175ZM157.175 33.1022L158.037 30.2287C157.132 29.9571 156.007 29.7502 154.738 29.5826L154.345 32.5568L153.952 35.5309C155.092 35.6815 155.854 35.8382 156.313 35.9757L157.175 33.1022ZM154.345 32.5568L154.738 29.5826C153.43 29.4098 152.194 29.3181 151.038 29.3181V32.3181V35.3181C151.883 35.3181 152.852 35.3855 153.952 35.5309L154.345 32.5568ZM151.038 32.3181V29.3181C148.451 29.3181 146.032 29.8868 143.857 31.0917L145.311 33.7158L146.765 36.34C147.954 35.6812 149.353 35.3181 151.038 35.3181V32.3181ZM145.311 33.7158L143.87 31.0849C141.738 32.2528 140.03 33.9043 138.781 35.9958L141.357 37.534L143.932 39.0722C144.638 37.891 145.566 36.9971 146.753 36.3468L145.311 33.7158ZM141.357 37.534L138.765 36.0224C137.51 38.1739 136.925 40.5948 136.925 43.1931H139.925H142.925C142.925 41.5187 143.294 40.1669 143.948 39.0456L141.357 37.534ZM139.925 43.1931H136.925V72.8181H139.925H142.925V43.1931H139.925ZM139.925 72.8181V69.8181H125.402V72.8181V75.8181H139.925V72.8181ZM172.6 70.5681L171.114 73.1738L171.123 73.179L171.132 73.1841L172.6 70.5681ZM163.669 61.2272L161.003 62.6047L161.007 62.6108L163.669 61.2272ZM163.669 32.6931L161 31.3217V31.3217L163.669 32.6931ZM172.498 23.1817L170.964 20.6039L170.957 20.6079L172.498 23.1817ZM195.578 21.4431L194.527 24.253L194.54 24.2578L194.552 24.2625L195.578 21.4431ZM203.419 26.3863L201.308 28.5185L201.314 28.5238L201.319 28.5292L203.419 26.3863ZM208.669 34.7045L205.859 35.7558L205.861 35.7621L208.669 34.7045ZM210.544 50.3522V53.3522H213.544V50.3522H210.544ZM166.328 50.3522H163.328V53.3522H166.328V50.3522ZM166.328 41.3522V38.3522H163.328V41.3522H166.328ZM196.873 41.3522V44.3522H199.873V41.3522H196.873ZM195.509 35.7954L192.896 37.2679V37.2679L195.509 35.7954ZM191.725 32.0113L190.209 34.5999L190.231 34.6127L190.253 34.625L191.725 32.0113ZM180.305 32.1477L181.838 34.7263L181.848 34.7201L180.305 32.1477ZM176.35 36.2045L178.959 37.6853L178.964 37.6778L178.968 37.6703L176.35 36.2045ZM174.884 41.8295L171.885 41.7965L171.884 41.813V41.8295H174.884ZM176.316 57.1022L173.639 58.4567L173.646 58.4695L173.653 58.4822L176.316 57.1022ZM191.18 62.3181L190.217 59.4769V59.4769L191.18 62.3181ZM194.623 60.2727L192.554 58.1002L192.554 58.1003L194.623 60.2727ZM196.805 56.9318L197.002 53.9383L194.787 53.7921L194 55.8678L196.805 56.9318ZM210.237 57.8181L213.172 58.4382L213.887 55.0525L210.434 54.8246L210.237 57.8181ZM206.044 66.2727L203.788 64.2941L203.787 64.2956L206.044 66.2727ZM197.93 71.8636L199.044 74.649L199.054 74.645L197.93 71.8636ZM186.509 73.8408V70.8408C181.531 70.8408 177.422 69.8346 174.069 67.9522L172.6 70.5681L171.132 73.1841C175.551 75.6653 180.716 76.8408 186.509 76.8408V73.8408ZM172.6 70.5681L174.087 67.9624C170.735 66.0496 168.161 63.3649 166.33 59.8436L163.669 61.2272L161.007 62.6108C163.358 67.135 166.739 70.6776 171.114 73.1738L172.6 70.5681ZM163.669 61.2272L166.334 59.8498C164.505 56.3115 163.532 52.0192 163.532 46.8749H160.532H157.532C157.532 52.7761 158.65 58.052 161.003 62.6047L163.669 61.2272ZM160.532 46.8749H163.532C163.532 41.8811 164.5 37.6392 166.337 34.0645L163.669 32.6931L161 31.3217C158.656 35.8834 157.532 41.0961 157.532 46.8749H160.532ZM163.669 32.6931L166.337 34.0645C168.181 30.4767 170.741 27.7305 174.039 25.7556L172.498 23.1817L170.957 20.6079C166.664 23.1785 163.338 26.7732 161 31.3217L163.669 32.6931ZM172.498 23.1817L174.033 25.7596C177.318 23.8039 181.248 22.7727 185.93 22.7727V19.7727V16.7727C180.339 16.7727 175.314 18.0142 170.964 20.6039L172.498 23.1817ZM185.93 19.7727V22.7727C189.057 22.7727 191.914 23.2756 194.527 24.253L195.578 21.4431L196.629 18.6332C193.287 17.3834 189.712 16.7727 185.93 16.7727V19.7727ZM195.578 21.4431L194.552 24.2625C197.153 25.2082 199.395 26.6245 201.308 28.5185L203.419 26.3863L205.529 24.2541C202.988 21.739 200.002 19.8598 196.603 18.6237L195.578 21.4431ZM203.419 26.3863L201.319 28.5292C203.216 30.3879 204.742 32.7717 205.859 35.7558L208.669 34.7045L211.478 33.6532C210.095 29.9554 208.121 26.7938 205.518 24.2434L203.419 26.3863ZM208.669 34.7045L205.861 35.7621C206.956 38.668 207.544 42.1814 207.544 46.3636H210.544H213.544C213.544 41.6366 212.881 37.3773 211.476 33.6469L208.669 34.7045ZM210.544 46.3636H207.544V50.3522H210.544H213.544V46.3636H210.544ZM210.544 50.3522V47.3522H166.328V50.3522V53.3522H210.544V50.3522ZM166.328 50.3522H169.328V41.3522H166.328H163.328V50.3522H166.328ZM166.328 41.3522V44.3522H196.873V41.3522V38.3522H166.328V41.3522ZM196.873 41.3522H199.873C199.873 38.8131 199.317 36.4415 198.123 34.3229L195.509 35.7954L192.896 37.2679C193.52 38.3766 193.873 39.7095 193.873 41.3522H196.873ZM195.509 35.7954L198.123 34.3229C196.945 32.2317 195.289 30.5757 193.198 29.3976L191.725 32.0113L190.253 34.625C191.389 35.2651 192.256 36.1318 192.896 37.2679L195.509 35.7954ZM191.725 32.0113L193.242 29.4226C191.127 28.184 188.736 27.6136 186.169 27.6136V30.6136V33.6136C187.829 33.6136 189.142 33.9749 190.209 34.5999L191.725 32.0113ZM186.169 30.6136V27.6136C183.481 27.6136 180.982 28.2429 178.761 29.5752L180.305 32.1477L181.848 34.7201C183.037 34.0069 184.447 33.6136 186.169 33.6136V30.6136ZM180.305 32.1477L178.772 29.569C176.638 30.8379 174.945 32.5737 173.733 34.7387L176.35 36.2045L178.968 37.6703C179.665 36.4262 180.608 35.4574 181.838 34.7263L180.305 32.1477ZM176.35 36.2045L173.741 34.7237C172.519 36.8779 171.913 39.2568 171.885 41.7965L174.884 41.8295L177.884 41.8624C177.902 40.2657 178.273 38.8947 178.959 37.6853L176.35 36.2045ZM174.884 41.8295H171.884V50.3863H174.884H177.884V41.8295H174.884ZM174.884 50.3863H171.884C171.884 53.3434 172.43 56.0663 173.639 58.4567L176.316 57.1022L178.993 55.7477C178.294 54.3654 177.884 52.611 177.884 50.3863H174.884ZM176.316 57.1022L173.653 58.4822C174.883 60.8573 176.653 62.7439 178.942 64.0644L180.441 61.4658L181.94 58.8673C180.684 58.1424 179.704 57.1198 178.98 55.7222L176.316 57.1022ZM180.441 61.4658L178.942 64.0644C181.25 65.3957 183.889 65.9999 186.748 65.9999V62.9999V59.9999C184.743 59.9999 183.178 59.5814 181.94 58.8673L180.441 61.4658ZM186.748 62.9999V65.9999C188.644 65.9999 190.452 65.7326 192.143 65.1593L191.18 62.3181L190.217 59.4769C189.226 59.8128 188.079 59.9999 186.748 59.9999V62.9999ZM191.18 62.3181L192.143 65.1593C193.866 64.5754 195.399 63.6766 196.692 62.4451L194.623 60.2727L192.554 58.1003C191.938 58.6869 191.176 59.1518 190.217 59.4769L191.18 62.3181ZM194.623 60.2727L196.692 62.4451C197.994 61.205 198.962 59.704 199.61 57.9957L196.805 56.9318L194 55.8678C193.648 56.7958 193.161 57.5221 192.554 58.1002L194.623 60.2727ZM196.805 56.9318L196.607 59.9252L210.039 60.8116L210.237 57.8181L210.434 54.8246L197.002 53.9383L196.805 56.9318ZM210.237 57.8181L207.302 57.198C206.723 59.937 205.552 62.2836 203.788 64.2941L206.044 66.2727L208.299 68.2512C210.762 65.4435 212.387 62.1538 213.172 58.4382L210.237 57.8181ZM206.044 66.2727L203.787 64.2956C202.043 66.286 199.745 67.8943 196.806 69.0821L197.93 71.8636L199.054 74.645C202.751 73.151 205.862 71.032 208.3 68.2497L206.044 66.2727ZM197.93 71.8636L196.816 69.0781C193.942 70.2275 190.526 70.8408 186.509 70.8408V73.8408V76.8408C191.129 76.8408 195.327 76.136 199.044 74.649L197.93 71.8636ZM234.944 2.99993H237.944V-6.86646e-05H234.944V2.99993ZM234.944 72.8181V75.8181H237.944V72.8181H234.944ZM220.421 72.8181H217.421V75.8181H220.421V72.8181ZM220.421 2.99993V-6.86646e-05H217.421V2.99993H220.421ZM234.944 2.99993H231.944V72.8181H234.944H237.944V2.99993H234.944ZM234.944 72.8181V69.8181H220.421V72.8181V75.8181H234.944V72.8181ZM220.421 72.8181H223.421V2.99993H220.421H217.421V72.8181H220.421ZM220.421 2.99993V5.99993H234.944V2.99993V-6.86646e-05H220.421V2.99993ZM250.761 92.0113L251.301 89.0604L251.285 89.0573L251.268 89.0544L250.761 92.0113ZM246.807 90.9545L243.935 90.0875L243.149 92.6896L245.661 93.7273L246.807 90.9545ZM250.079 80.1136L250.959 77.2454L248.078 76.362L247.207 79.2466L250.079 80.1136ZM254.682 80.9658L254.582 83.9642L254.583 83.9642L254.682 80.9658ZM258.261 80.0113L256.597 77.5151L256.584 77.5238L256.571 77.5326L258.261 80.0113ZM260.75 76.534L263.546 77.6214L263.55 77.611L260.75 76.534ZM261.602 74.3181L264.402 75.3951L264.797 74.3686L264.435 73.3303L261.602 74.3181ZM242.818 20.4545V17.4545H238.595L239.985 21.4423L242.818 20.4545ZM258.091 20.4545L260.978 19.6405L260.362 17.4545H258.091V20.4545ZM268.932 58.909L266.044 59.723L266.66 61.909H268.932V58.909ZM269.477 58.909V61.909H271.742L272.363 59.7301L269.477 58.909ZM280.42 20.4545V17.4545H278.155L277.535 19.6334L280.42 20.4545ZM295.795 20.4545L298.626 21.4475L300.027 17.4545H295.795V20.4545ZM275.443 78.4772L272.612 77.4842L272.609 77.4943L275.443 78.4772ZM271.454 85.8408L269.117 83.9606L269.106 83.9745L269.095 83.9885L271.454 85.8408ZM265.148 90.7158L263.925 87.9764L263.914 87.981L263.904 87.9856L265.148 90.7158ZM255.943 92.4545V89.4545C254.262 89.4545 252.717 89.3195 251.301 89.0604L250.761 92.0113L250.221 94.9622C252.033 95.294 253.942 95.4545 255.943 95.4545V92.4545ZM250.761 92.0113L251.268 89.0544C249.812 88.8047 248.726 88.5012 247.952 88.1817L246.807 90.9545L245.661 93.7273C246.979 94.2714 248.529 94.6724 250.254 94.9682L250.761 92.0113ZM246.807 90.9545L249.679 91.8215L252.951 80.9806L250.079 80.1136L247.207 79.2466L243.935 90.0875L246.807 90.9545ZM250.079 80.1136L249.2 82.9817C251.085 83.5598 252.887 83.9077 254.582 83.9642L254.682 80.9658L254.782 77.9675C253.749 77.9331 252.483 77.7128 250.959 77.2454L250.079 80.1136ZM254.682 80.9658L254.583 83.9642C256.509 84.0274 258.351 83.5812 259.951 82.49L258.261 80.0113L256.571 77.5326C256.172 77.805 255.627 77.9952 254.78 77.9675L254.682 80.9658ZM258.261 80.0113L259.925 82.5074C261.638 81.3655 262.778 79.5958 263.546 77.6214L260.75 76.534L257.954 75.4467C257.449 76.745 256.93 77.2935 256.597 77.5151L258.261 80.0113ZM260.75 76.534L263.55 77.611L264.402 75.3951L261.602 74.3181L258.802 73.2412L257.95 75.4571L260.75 76.534ZM261.602 74.3181L264.435 73.3303L245.651 19.4666L242.818 20.4545L239.985 21.4423L258.769 75.306L261.602 74.3181ZM242.818 20.4545V23.4545H258.091V20.4545V17.4545H242.818V20.4545ZM258.091 20.4545L255.203 21.2685L266.044 59.723L268.932 58.909L271.819 58.095L260.978 19.6405L258.091 20.4545ZM268.932 58.909V61.909H269.477V58.909V55.909H268.932V58.909ZM269.477 58.909L272.363 59.7301L283.306 21.2756L280.42 20.4545L277.535 19.6334L266.592 58.0879L269.477 58.909ZM280.42 20.4545V23.4545H295.795V20.4545V17.4545H280.42V20.4545ZM295.795 20.4545L292.964 19.4615L272.612 77.4842L275.443 78.4772L278.274 79.4702L298.626 21.4475L295.795 20.4545ZM275.443 78.4772L272.609 77.4943C271.732 80.0232 270.56 82.1663 269.117 83.9606L271.454 85.8408L273.792 87.7211C275.712 85.3336 277.2 82.5676 278.277 79.4601L275.443 78.4772ZM271.454 85.8408L269.095 83.9885C267.748 85.7038 266.042 87.0312 263.925 87.9764L265.148 90.7158L266.371 93.4553C269.344 92.1277 271.842 90.2052 273.814 87.6932L271.454 85.8408ZM265.148 90.7158L263.904 87.9856C261.843 88.924 259.222 89.4545 255.943 89.4545V92.4545V95.4545C259.846 95.4545 263.361 94.8258 266.391 93.4461L265.148 90.7158Z" fill="black" mask="url(#path-1-outside-1_787_2064)"/>
</svg>
