<svg width="141" height="47" viewBox="0 0 141 47" fill="none" xmlns="http://www.w3.org/2000/svg">
<mask id="path-1-outside-1_702_2672" maskUnits="userSpaceOnUse" x="-0.0090332" y="-0.0908813" width="141" height="47" fill="black">
<rect fill="white" x="-0.0090332" y="-0.0908813" width="141" height="47"/>
<path d="M1.00006 35.9091V1.00003H14.7728C17.4205 1.00003 19.6762 1.50571 21.5398 2.51707C23.4035 3.51707 24.8239 4.90912 25.8012 6.69321C26.7898 8.46594 27.2841 10.5114 27.2841 12.8296C27.2841 15.1478 26.7841 17.1932 25.7841 18.9659C24.7841 20.7387 23.3353 22.1193 21.4376 23.108C19.5512 24.0966 17.2671 24.5909 14.5853 24.5909H5.80687V18.6762H13.3921C14.8126 18.6762 15.983 18.4318 16.9035 17.9432C17.8353 17.4432 18.5285 16.7557 18.983 15.8807C19.4489 14.9943 19.6819 13.9773 19.6819 12.8296C19.6819 11.6705 19.4489 10.6591 18.983 9.79548C18.5285 8.92048 17.8353 8.24434 16.9035 7.76707C15.9716 7.27844 14.7898 7.03412 13.358 7.03412H8.38074V35.9091H1.00006ZM47.2916 24.7614V9.7273H54.553V35.9091H47.5814V31.1534H47.3086C46.7177 32.6875 45.7348 33.9205 44.3598 34.8523C42.9961 35.7841 41.3314 36.25 39.3655 36.25C37.6155 36.25 36.0757 35.8523 34.7461 35.0568C33.4166 34.2614 32.3768 33.1307 31.6268 31.6648C30.8882 30.1989 30.5132 28.4432 30.5018 26.3978V9.7273H37.7632V25.1023C37.7745 26.6478 38.1893 27.8693 39.0075 28.7671C39.8257 29.6648 40.9223 30.1137 42.2973 30.1137C43.1723 30.1137 43.9905 29.9148 44.7518 29.5171C45.5132 29.108 46.1268 28.5057 46.5927 27.7103C47.07 26.9148 47.303 25.9318 47.2916 24.7614ZM58.9212 35.9091V9.7273H65.961V14.2955H66.2337C66.711 12.6705 67.5121 11.4432 68.6371 10.6137C69.7621 9.77275 71.0576 9.3523 72.5235 9.3523C72.8871 9.3523 73.2792 9.37503 73.6996 9.42048C74.1201 9.46594 74.4894 9.52844 74.8076 9.60798V16.0512C74.4667 15.9489 73.9951 15.858 73.3928 15.7784C72.7905 15.6989 72.2394 15.6591 71.7394 15.6591C70.6712 15.6591 69.7167 15.8921 68.8757 16.358C68.0462 16.8125 67.3871 17.4489 66.8985 18.2671C66.4212 19.0853 66.1826 20.0284 66.1826 21.0966V35.9091H58.9212ZM87.8349 36.4205C85.1417 36.4205 82.8235 35.875 80.8803 34.7841C78.9485 33.6818 77.4599 32.125 76.4144 30.1137C75.369 28.0909 74.8462 25.6989 74.8462 22.9375C74.8462 20.2443 75.369 17.8807 76.4144 15.8466C77.4599 13.8125 78.9315 12.2273 80.8292 11.0909C82.7383 9.95457 84.9769 9.38639 87.5451 9.38639C89.2724 9.38639 90.8803 9.6648 92.369 10.2216C93.869 10.7671 95.1758 11.5909 96.2894 12.6932C97.4144 13.7955 98.2894 15.1818 98.9144 16.8523C99.5394 18.5114 99.8519 20.4546 99.8519 22.6818V24.6762H77.744V20.1762H93.0167C93.0167 19.1307 92.7894 18.2046 92.3349 17.3978C91.8803 16.5909 91.2497 15.9603 90.4428 15.5057C89.6474 15.0398 88.7213 14.8068 87.6644 14.8068C86.5622 14.8068 85.5849 15.0625 84.7326 15.5739C83.8917 16.0739 83.2326 16.75 82.7553 17.6023C82.2781 18.4432 82.0338 19.3807 82.0224 20.4148V24.6932C82.0224 25.9887 82.261 27.108 82.7383 28.0512C83.2269 28.9943 83.9144 29.7216 84.8008 30.233C85.6872 30.7443 86.7383 31 87.9542 31C88.761 31 89.4997 30.8864 90.1701 30.6591C90.8406 30.4318 91.4144 30.0909 91.8917 29.6364C92.369 29.1818 92.7326 28.625 92.9826 27.9659L99.6985 28.4091C99.3576 30.0228 98.6588 31.4318 97.6019 32.6364C96.5565 33.8296 95.2042 34.7614 93.5451 35.4318C91.8974 36.0909 89.994 36.4205 87.8349 36.4205ZM110.412 1.00003V35.9091H103.151V1.00003H110.412ZM119.272 45.7273C118.351 45.7273 117.488 45.6534 116.681 45.5057C115.885 45.3693 115.226 45.1932 114.703 44.9773L116.34 39.5568C117.192 39.8182 117.959 39.9603 118.641 39.983C119.334 40.0057 119.931 39.8466 120.431 39.5057C120.942 39.1648 121.357 38.5853 121.675 37.7671L122.101 36.6591L112.709 9.7273H120.346L125.766 28.9546H126.039L131.51 9.7273H139.198L129.022 38.7387C128.533 40.1478 127.868 41.375 127.027 42.4205C126.198 43.4773 125.147 44.2898 123.874 44.858C122.601 45.4375 121.067 45.7273 119.272 45.7273Z"/>
</mask>
<path d="M1.00006 35.9091H5.72205e-05V36.9091H1.00006V35.9091ZM1.00006 1.00003V2.67029e-05H5.72205e-05V1.00003H1.00006ZM21.5398 2.51707L21.0629 3.396L21.067 3.39823L21.5398 2.51707ZM25.8012 6.69321L24.9241 7.17364L24.9278 7.18028L25.8012 6.69321ZM21.4376 23.108L20.9755 22.2211L20.9734 22.2223L21.4376 23.108ZM5.80687 24.5909H4.80687V25.5909H5.80687V24.5909ZM5.80687 18.6762V17.6762H4.80687V18.6762H5.80687ZM16.9035 17.9432L17.3724 18.8265L17.3763 18.8244L16.9035 17.9432ZM18.983 15.8807L18.0978 15.4154L18.0956 15.4197L18.983 15.8807ZM18.983 9.79548L18.0956 10.2565L18.0992 10.2634L18.1029 10.2703L18.983 9.79548ZM16.9035 7.76707L16.439 8.65273L16.4476 8.65712L16.9035 7.76707ZM8.38074 7.03412V6.03412H7.38074V7.03412H8.38074ZM8.38074 35.9091V36.9091H9.38074V35.9091H8.38074ZM1.00006 35.9091H2.00006V1.00003H1.00006H5.72205e-05V35.9091H1.00006ZM1.00006 1.00003V2.00003H14.7728V1.00003V2.67029e-05H1.00006V1.00003ZM14.7728 1.00003V2.00003C17.2947 2.00003 19.3777 2.48148 21.0629 3.39599L21.5398 2.51707L22.0168 1.63815C19.9747 0.529933 17.5464 2.67029e-05 14.7728 2.67029e-05V1.00003ZM21.5398 2.51707L21.067 3.39823C22.7671 4.31047 24.0438 5.56643 24.9241 7.17362L25.8012 6.69321L26.6782 6.21279C25.6041 4.2518 24.0398 2.72368 22.0126 1.63591L21.5398 2.51707ZM25.8012 6.69321L24.9278 7.18028C25.8222 8.78404 26.2841 10.6573 26.2841 12.8296H27.2841H28.2841C28.2841 10.3654 27.7574 8.14783 26.6746 6.20614L25.8012 6.69321ZM27.2841 12.8296H26.2841C26.2841 14.9999 25.8174 16.8716 24.9132 18.4746L25.7841 18.9659L26.6551 19.4573C27.7509 17.5148 28.2841 15.2956 28.2841 12.8296H27.2841ZM25.7841 18.9659L24.9132 18.4746C24.0133 20.0698 22.7108 21.3171 20.9755 22.2211L21.4376 23.108L21.8996 23.9949C23.9598 22.9216 25.555 21.4075 26.6551 19.4573L25.7841 18.9659ZM21.4376 23.108L20.9734 22.2223C19.2626 23.1189 17.1464 23.5909 14.5853 23.5909V24.5909V25.5909C17.3878 25.5909 19.8398 25.0744 21.9018 23.9937L21.4376 23.108ZM14.5853 24.5909V23.5909H5.80687V24.5909V25.5909H14.5853V24.5909ZM5.80687 24.5909H6.80687V18.6762H5.80687H4.80687V24.5909H5.80687ZM5.80687 18.6762V19.6762H13.3921V18.6762V17.6762H5.80687V18.6762ZM13.3921 18.6762V19.6762C14.9195 19.6762 16.2647 19.4145 17.3724 18.8265L16.9035 17.9432L16.4346 17.06C15.7014 17.4492 14.7056 17.6762 13.3921 17.6762V18.6762ZM16.9035 17.9432L17.3763 18.8244C18.4719 18.2365 19.3163 17.4084 19.8704 16.3417L18.983 15.8807L18.0956 15.4197C17.7407 16.103 17.1987 16.6499 16.4306 17.062L16.9035 17.9432ZM18.983 15.8807L19.8682 16.346C20.4199 15.2964 20.6819 14.1155 20.6819 12.8296H19.6819H18.6819C18.6819 13.8391 18.478 14.6923 18.0978 15.4154L18.983 15.8807ZM19.6819 12.8296H20.6819C20.6819 11.5348 20.4208 10.3545 19.8631 9.32069L18.983 9.79548L18.1029 10.2703C18.477 10.9637 18.6819 11.8062 18.6819 12.8296H19.6819ZM18.983 9.79548L19.8704 9.33449C19.314 8.26341 18.464 7.44282 17.3593 6.87703L16.9035 7.76707L16.4476 8.65712C17.2066 9.04587 17.7429 9.57755 18.0956 10.2565L18.983 9.79548ZM16.9035 7.76707L17.3679 6.88145C16.2505 6.29553 14.896 6.03412 13.358 6.03412V7.03412V8.03412C14.6837 8.03412 15.6928 8.26134 16.4391 8.65269L16.9035 7.76707ZM13.358 7.03412V6.03412H8.38074V7.03412V8.03412H13.358V7.03412ZM8.38074 7.03412H7.38074V35.9091H8.38074H9.38074V7.03412H8.38074ZM8.38074 35.9091V34.9091H1.00006V35.9091V36.9091H8.38074V35.9091ZM47.2916 24.7614H46.2915L46.2916 24.7711L47.2916 24.7614ZM47.2916 9.7273V8.7273H46.2916V9.7273H47.2916ZM54.553 9.7273H55.553V8.7273H54.553V9.7273ZM54.553 35.9091V36.9091H55.553V35.9091H54.553ZM47.5814 35.9091H46.5814V36.9091H47.5814V35.9091ZM47.5814 31.1534H48.5814V30.1534H47.5814V31.1534ZM47.3086 31.1534V30.1534H46.6222L46.3755 30.794L47.3086 31.1534ZM44.3598 34.8523L43.7988 34.0245L43.7956 34.0267L44.3598 34.8523ZM34.7461 35.0568L35.2596 34.1987L34.7461 35.0568ZM31.6268 31.6648L30.7338 32.1148L30.7366 32.1203L31.6268 31.6648ZM30.5018 26.3978H29.5018L29.5018 26.4033L30.5018 26.3978ZM30.5018 9.7273V8.7273H29.5018V9.7273H30.5018ZM37.7632 9.7273H38.7632V8.7273H37.7632V9.7273ZM37.7632 25.1023H36.7632L36.7632 25.1097L37.7632 25.1023ZM39.0075 28.7671L39.7466 28.0935L39.0075 28.7671ZM44.7518 29.5171L45.2149 30.4035L45.2251 30.398L44.7518 29.5171ZM46.5927 27.7103L45.7352 27.1957L45.7298 27.2049L46.5927 27.7103ZM47.2916 24.7614H48.2916V9.7273H47.2916H46.2916V24.7614H47.2916ZM47.2916 9.7273V10.7273H54.553V9.7273V8.7273H47.2916V9.7273ZM54.553 9.7273H53.553V35.9091H54.553H55.553V9.7273H54.553ZM54.553 35.9091V34.9091H47.5814V35.9091V36.9091H54.553V35.9091ZM47.5814 35.9091H48.5814V31.1534H47.5814H46.5814V35.9091H47.5814ZM47.5814 31.1534V30.1534H47.3086V31.1534V32.1534H47.5814V31.1534ZM47.3086 31.1534L46.3755 30.794C45.8587 32.1355 45.0067 33.2059 43.7988 34.0245L44.3598 34.8523L44.9208 35.6801C46.4628 34.6351 47.5767 33.2395 48.2418 31.5129L47.3086 31.1534ZM44.3598 34.8523L43.7956 34.0267C42.6278 34.8247 41.1691 35.25 39.3655 35.25V36.25V37.25C41.4936 37.25 43.3645 36.7436 44.924 35.6779L44.3598 34.8523ZM39.3655 36.25V35.25C37.7723 35.25 36.4146 34.8898 35.2596 34.1987L34.7461 35.0568L34.2327 35.915C35.7368 36.8148 37.4586 37.25 39.3655 37.25V36.25ZM34.7461 35.0568L35.2596 34.1987C34.1011 33.5056 33.1873 32.5193 32.5171 31.2093L31.6268 31.6648L30.7366 32.1203C31.5664 33.7421 32.7321 35.0172 34.2327 35.915L34.7461 35.0568ZM31.6268 31.6648L32.5199 31.2148C31.8657 29.9165 31.5125 28.3204 31.5018 26.3922L30.5018 26.3978L29.5018 26.4033C29.5138 28.566 29.9107 30.4812 30.7338 32.1148L31.6268 31.6648ZM30.5018 26.3978H31.5018V9.7273H30.5018H29.5018V26.3978H30.5018ZM30.5018 9.7273V10.7273H37.7632V9.7273V8.7273H30.5018V9.7273ZM37.7632 9.7273H36.7632V25.1023H37.7632H38.7632V9.7273H37.7632ZM37.7632 25.1023L36.7632 25.1097C36.7759 26.8323 37.2426 28.3151 38.2684 29.4407L39.0075 28.7671L39.7466 28.0935C39.136 27.4236 38.7732 26.4632 38.7632 25.0949L37.7632 25.1023ZM39.0075 28.7671L38.2684 29.4407C39.3021 30.5749 40.682 31.1137 42.2973 31.1137V30.1137V29.1137C41.1625 29.1137 40.3493 28.7547 39.7466 28.0935L39.0075 28.7671ZM42.2973 30.1137V31.1137C43.3304 31.1137 44.3078 30.8772 45.2148 30.4034L44.7518 29.5171L44.2888 28.6307C43.6731 28.9524 43.0142 29.1137 42.2973 29.1137V30.1137ZM44.7518 29.5171L45.2251 30.398C46.1593 29.896 46.9033 29.1587 47.4556 28.2157L46.5927 27.7103L45.7298 27.2049C45.3504 27.8527 44.8671 28.3199 44.2785 28.6362L44.7518 29.5171ZM46.5927 27.7103L47.4502 28.2248C48.0444 27.2345 48.3042 26.0588 48.2915 24.7517L47.2916 24.7614L46.2916 24.7711C46.3017 25.8049 46.0956 26.5951 45.7352 27.1958L46.5927 27.7103ZM58.9212 35.9091H57.9212V36.9091H58.9212V35.9091ZM58.9212 9.7273V8.7273H57.9212V9.7273H58.9212ZM65.961 9.7273H66.961V8.7273H65.961V9.7273ZM65.961 14.2955H64.961V15.2955H65.961V14.2955ZM66.2337 14.2955V15.2955H66.9822L67.1932 14.5773L66.2337 14.2955ZM68.6371 10.6137L69.2306 11.4185L69.2358 11.4146L68.6371 10.6137ZM73.6996 9.42048L73.8071 8.42627H73.8071L73.6996 9.42048ZM74.8076 9.60798H75.8076V8.8272L75.0501 8.63784L74.8076 9.60798ZM74.8076 16.0512L74.5202 17.009L75.8076 17.3952V16.0512H74.8076ZM68.8757 16.358L69.3563 17.235L69.3604 17.2327L68.8757 16.358ZM66.8985 18.2671L66.0399 17.7543L66.0347 17.7632L66.8985 18.2671ZM66.1826 35.9091V36.9091H67.1826V35.9091H66.1826ZM58.9212 35.9091H59.9212V9.7273H58.9212H57.9212V35.9091H58.9212ZM58.9212 9.7273V10.7273H65.961V9.7273V8.7273H58.9212V9.7273ZM65.961 9.7273H64.961V14.2955H65.961H66.961V9.7273H65.961ZM65.961 14.2955V15.2955H66.2337V14.2955V13.2955H65.961V14.2955ZM66.2337 14.2955L67.1932 14.5773C67.6222 13.1164 68.3162 12.0928 69.2306 11.4185L68.6371 10.6137L68.0436 9.80881C66.708 10.7937 65.7997 12.2246 65.2742 14.0137L66.2337 14.2955ZM68.6371 10.6137L69.2358 11.4146C70.18 10.7088 71.2633 10.3523 72.5235 10.3523V9.3523V8.3523C70.8518 8.3523 69.3442 8.83666 68.0384 9.81269L68.6371 10.6137ZM72.5235 9.3523V10.3523C72.846 10.3523 73.2018 10.3725 73.5921 10.4147L73.6996 9.42048L73.8071 8.42627C73.3565 8.37757 72.9282 8.3523 72.5235 8.3523V9.3523ZM73.6996 9.42048L73.5921 10.4147C73.9793 10.4566 74.3018 10.5123 74.565 10.5781L74.8076 9.60798L75.0501 8.63784C74.6769 8.54455 74.2608 8.47532 73.8071 8.42627L73.6996 9.42048ZM74.8076 9.60798H73.8076V16.0512H74.8076H75.8076V9.60798H74.8076ZM74.8076 16.0512L75.0949 15.0933C74.6795 14.9687 74.1475 14.8694 73.5237 14.787L73.3928 15.7784L73.2618 16.7698C73.8426 16.8465 74.2538 16.9291 74.5202 17.009L74.8076 16.0512ZM73.3928 15.7784L73.5237 14.787C72.8869 14.7029 72.2913 14.6591 71.7394 14.6591V15.6591V16.6591C72.1875 16.6591 72.6941 16.6948 73.2618 16.7698L73.3928 15.7784ZM71.7394 15.6591V14.6591C70.5209 14.6591 69.3963 14.9263 68.3911 15.4833L68.8757 16.358L69.3604 17.2327C70.037 16.8578 70.8215 16.6591 71.7394 16.6591V15.6591ZM68.8757 16.358L68.3952 15.481C67.4082 16.0218 66.6192 16.7844 66.0399 17.7543L66.8985 18.2671L67.757 18.7798C68.155 18.1133 68.6841 17.6032 69.3563 17.235L68.8757 16.358ZM66.8985 18.2671L66.0347 17.7632C65.4573 18.7531 65.1826 19.8745 65.1826 21.0966H66.1826H67.1826C67.1826 20.1824 67.3851 19.4174 67.7622 18.7709L66.8985 18.2671ZM66.1826 21.0966H65.1826V35.9091H66.1826H67.1826V21.0966H66.1826ZM66.1826 35.9091V34.9091H58.9212V35.9091V36.9091H66.1826V35.9091ZM80.8803 34.7841L80.3847 35.6527L80.3908 35.6561L80.8803 34.7841ZM76.4144 30.1137L75.5261 30.5728L75.5271 30.5749L76.4144 30.1137ZM76.4144 15.8466L75.525 15.3895L76.4144 15.8466ZM80.8292 11.0909L80.3177 10.2316L80.3155 10.233L80.8292 11.0909ZM92.369 10.2216L92.0186 11.1583L92.0272 11.1614L92.369 10.2216ZM96.2894 12.6932L95.586 13.4039L95.5896 13.4075L96.2894 12.6932ZM98.9144 16.8523L97.9778 17.2027L97.9786 17.2048L98.9144 16.8523ZM99.8519 24.6762V25.6762H100.852V24.6762H99.8519ZM77.744 24.6762H76.744V25.6762H77.744V24.6762ZM77.744 20.1762V19.1762H76.744V20.1762H77.744ZM93.0167 20.1762V21.1762H94.0167V20.1762H93.0167ZM92.3349 17.3978L91.4636 17.8886V17.8886L92.3349 17.3978ZM90.4428 15.5057L89.9374 16.3686L89.9447 16.3728L89.952 16.377L90.4428 15.5057ZM84.7326 15.5739L85.2437 16.4334L85.2471 16.4314L84.7326 15.5739ZM82.7553 17.6023L83.625 18.0959L83.6279 18.0909L82.7553 17.6023ZM82.0224 20.4148L81.0224 20.4038V20.4148H82.0224ZM82.7383 28.0512L81.846 28.5027L81.8504 28.5112L82.7383 28.0512ZM90.1701 30.6591L89.8491 29.7121L90.1701 30.6591ZM91.8917 29.6364L91.202 28.9123L91.8917 29.6364ZM92.9826 27.9659L93.0485 26.9681L92.3101 26.9194L92.0476 27.6113L92.9826 27.9659ZM99.6985 28.4091L100.677 28.6158L100.915 27.4872L99.7644 27.4113L99.6985 28.4091ZM97.6019 32.6364L96.8502 31.9769L96.8498 31.9774L97.6019 32.6364ZM93.5451 35.4318L93.9165 36.3603L93.9198 36.359L93.5451 35.4318ZM87.8349 36.4205V35.4205C85.2775 35.4205 83.1353 34.9032 81.3699 33.9121L80.8803 34.7841L80.3908 35.6561C82.5118 36.8468 85.0059 37.4205 87.8349 37.4205V36.4205ZM80.8803 34.7841L81.3759 33.9156C79.6145 32.9105 78.2603 31.4967 77.3017 29.6525L76.4144 30.1137L75.5271 30.5749C76.6595 32.7534 78.2825 34.4532 80.3848 35.6527L80.8803 34.7841ZM76.4144 30.1137L77.3028 29.6545C76.3447 27.8008 75.8463 25.5727 75.8463 22.9375H74.8463H73.8463C73.8463 25.8251 74.3932 28.381 75.5261 30.5728L76.4144 30.1137ZM74.8463 22.9375H75.8463C75.8463 20.3752 76.3429 18.1733 77.3038 16.3037L76.4144 15.8466L75.525 15.3895C74.395 17.5881 73.8463 20.1135 73.8463 22.9375H74.8463ZM76.4144 15.8466L77.3038 16.3037C78.267 14.4298 79.611 12.986 81.3429 11.9489L80.8292 11.0909L80.3155 10.233C78.2519 11.4686 76.6528 13.1953 75.525 15.3895L76.4144 15.8466ZM80.8292 11.0909L81.3407 11.9502C83.0723 10.9195 85.1285 10.3864 87.5451 10.3864V9.38639V8.38639C84.8254 8.38639 82.4043 8.98962 80.3177 10.2316L80.8292 11.0909ZM87.5451 9.38639V10.3864C89.1632 10.3864 90.6514 10.6468 92.0186 11.1582L92.369 10.2216L92.7193 9.285C91.1093 8.68277 89.3816 8.38639 87.5451 8.38639V9.38639ZM92.369 10.2216L92.0272 11.1614C93.3941 11.6585 94.5769 12.4052 95.586 13.4039L96.2894 12.6932L96.9929 11.9825C95.7747 10.7767 94.3438 9.87568 92.7107 9.28183L92.369 10.2216ZM96.2894 12.6932L95.5896 13.4075C96.5969 14.3945 97.3973 15.6512 97.9778 17.2027L98.9144 16.8523L99.851 16.5019C99.1815 14.7125 98.2319 13.1965 96.9893 11.9789L96.2894 12.6932ZM98.9144 16.8523L97.9786 17.2048C98.5519 18.7265 98.8519 20.5454 98.8519 22.6818H99.8519H100.852C100.852 20.3638 100.527 18.2963 99.8502 16.4998L98.9144 16.8523ZM99.8519 22.6818H98.8519V24.6762H99.8519H100.852V22.6818H99.8519ZM99.8519 24.6762V23.6762H77.744V24.6762V25.6762H99.8519V24.6762ZM77.744 24.6762H78.744V20.1762H77.744H76.744V24.6762H77.744ZM77.744 20.1762V21.1762H93.0167V20.1762V19.1762H77.744V20.1762ZM93.0167 20.1762H94.0167C94.0167 18.9813 93.7555 17.8821 93.2061 16.9069L92.3349 17.3978L91.4636 17.8886C91.8233 18.5271 92.0167 19.2801 92.0167 20.1762H93.0167ZM92.3349 17.3978L93.2061 16.9069C92.6619 15.9409 91.8997 15.1787 90.9337 14.6345L90.4428 15.5057L89.952 16.377C90.5996 16.7418 91.0988 17.2409 91.4636 17.8886L92.3349 17.3978ZM90.4428 15.5057L90.9482 14.6428C89.9782 14.0746 88.8725 13.8068 87.6644 13.8068V14.8068V15.8068C88.57 15.8068 89.3166 16.0049 89.9374 16.3686L90.4428 15.5057ZM87.6644 14.8068V13.8068C86.4012 13.8068 85.2424 14.1019 84.2181 14.7164L84.7326 15.5739L85.2471 16.4314C85.9274 16.0232 86.7231 15.8068 87.6644 15.8068V14.8068ZM84.7326 15.5739L84.2215 14.7144C83.2299 15.304 82.4461 16.1079 81.8828 17.1137L82.7553 17.6023L83.6279 18.0909C84.0192 17.3921 84.5535 16.8438 85.2437 16.4334L84.7326 15.5739ZM82.7553 17.6023L81.8857 17.1087C81.319 18.1071 81.0355 19.2126 81.0224 20.4038L82.0224 20.4148L83.0223 20.4258C83.032 19.5489 83.2371 18.7794 83.625 18.0959L82.7553 17.6023ZM82.0224 20.4148H81.0224V24.6932H82.0224H83.0224V20.4148H82.0224ZM82.0224 24.6932H81.0224C81.0224 26.1107 81.2837 27.3915 81.846 28.5027L82.7383 28.0512L83.6306 27.5997C83.2383 26.8245 83.0224 25.8666 83.0224 24.6932H82.0224ZM82.7383 28.0512L81.8504 28.5112C82.4234 29.6173 83.2426 30.4885 84.3011 31.0992L84.8008 30.233L85.3005 29.3668C84.5862 28.9547 84.0305 28.3714 83.6262 27.5912L82.7383 28.0512ZM84.8008 30.233L84.3011 31.0992C85.3657 31.7134 86.596 32 87.9542 32V31V30C86.8806 30 86.0086 29.7753 85.3005 29.3668L84.8008 30.233ZM87.9542 31V32C88.8552 32 89.704 31.873 90.4911 31.6062L90.1701 30.6591L89.8491 29.7121C89.2953 29.8998 88.6669 30 87.9542 30V31ZM90.1701 30.6591L90.4911 31.6062C91.2888 31.3358 91.9912 30.9226 92.5814 30.3605L91.8917 29.6364L91.202 28.9123C90.8376 29.2593 90.3923 29.5279 89.8491 29.7121L90.1701 30.6591ZM91.8917 29.6364L92.5814 30.3605C93.1745 29.7957 93.6183 29.1097 93.9176 28.3206L92.9826 27.9659L92.0476 27.6113C91.8469 28.1403 91.5635 28.568 91.202 28.9123L91.8917 29.6364ZM92.9826 27.9659L92.9168 28.9638L99.6327 29.4069L99.6985 28.4091L99.7644 27.4113L93.0485 26.9681L92.9826 27.9659ZM99.6985 28.4091L98.7201 28.2024C98.4136 29.6533 97.7905 30.9052 96.8502 31.9769L97.6019 32.6364L98.3536 33.2959C99.527 31.9585 100.302 30.3922 100.677 28.6158L99.6985 28.4091ZM97.6019 32.6364L96.8498 31.9774C95.92 33.0386 94.7032 33.8853 93.1704 34.5047L93.5451 35.4318L93.9198 36.359C95.7052 35.6375 97.193 34.6206 98.3541 33.2954L97.6019 32.6364ZM93.5451 35.4318L93.1737 34.5034C91.6667 35.1062 89.8936 35.4205 87.8349 35.4205V36.4205V37.4205C90.0944 37.4205 92.1281 37.0757 93.9165 36.3603L93.5451 35.4318ZM110.412 1.00003H111.412V2.67029e-05H110.412V1.00003ZM110.412 35.9091V36.9091H111.412V35.9091H110.412ZM103.151 35.9091H102.151V36.9091H103.151V35.9091ZM103.151 1.00003V2.67029e-05H102.151V1.00003H103.151ZM110.412 1.00003H109.412V35.9091H110.412H111.412V1.00003H110.412ZM110.412 35.9091V34.9091H103.151V35.9091V36.9091H110.412V35.9091ZM103.151 35.9091H104.151V1.00003H103.151H102.151V35.9091H103.151ZM103.151 1.00003V2.00003H110.412V1.00003V2.67029e-05H103.151V1.00003ZM116.681 45.5057L116.861 44.522L116.85 44.5201L116.681 45.5057ZM114.703 44.9773L113.746 44.6883L113.484 45.5557L114.322 45.9016L114.703 44.9773ZM116.34 39.5568L116.633 38.6008L115.673 38.3063L115.382 39.2678L116.34 39.5568ZM118.641 39.983L118.608 40.9824L118.608 40.9824L118.641 39.983ZM120.431 39.5057L119.876 38.6736L119.867 38.6795L120.431 39.5057ZM121.675 37.7671L122.607 38.1295L122.608 38.1261L121.675 37.7671ZM122.101 36.6591L123.035 37.0181L123.166 36.676L123.045 36.3298L122.101 36.6591ZM112.709 9.7273V8.7273H111.301L111.765 10.0566L112.709 9.7273ZM120.346 9.7273L121.308 9.45596L121.103 8.7273H120.346V9.7273ZM125.766 28.9546L124.803 29.2259L125.009 29.9546H125.766V28.9546ZM126.039 28.9546V29.9546H126.794L127.001 29.2283L126.039 28.9546ZM131.51 9.7273V8.7273H130.755L130.548 9.45359L131.51 9.7273ZM139.198 9.7273L140.141 10.0583L140.608 8.7273H139.198V9.7273ZM129.022 38.7387L128.078 38.4077L128.077 38.411L129.022 38.7387ZM127.027 42.4205L126.248 41.7937L126.241 41.803L127.027 42.4205ZM123.874 44.858L123.466 43.9448L123.46 43.9479L123.874 44.858ZM119.272 45.7273V44.7273C118.404 44.7273 117.602 44.6577 116.861 44.5221L116.681 45.5057L116.501 46.4894C117.374 46.6492 118.298 46.7273 119.272 46.7273V45.7273ZM116.681 45.5057L116.85 44.5201C116.099 44.3914 115.517 44.2315 115.085 44.053L114.703 44.9773L114.322 45.9016C114.935 46.1549 115.672 46.3473 116.512 46.4913L116.681 45.5057ZM114.703 44.9773L115.661 45.2663L117.297 39.8459L116.34 39.5568L115.382 39.2678L113.746 44.6883L114.703 44.9773ZM116.34 39.5568L116.047 40.5129C116.959 40.7927 117.815 40.956 118.608 40.9824L118.641 39.983L118.674 38.9835C118.103 38.9645 117.425 38.8437 116.633 38.6008L116.34 39.5568ZM118.641 39.983L118.608 40.9824C119.481 41.0111 120.294 40.8093 120.994 40.3319L120.431 39.5057L119.867 38.6795C119.568 38.8839 119.187 39.0004 118.674 38.9835L118.641 39.983ZM120.431 39.5057L120.985 40.3378C121.727 39.8435 122.245 39.0604 122.607 38.1295L121.675 37.7671L120.743 37.4046C120.469 38.1101 120.157 38.4861 119.876 38.6737L120.431 39.5057ZM121.675 37.7671L122.608 38.1261L123.035 37.0181L122.101 36.6591L121.168 36.3001L120.742 37.4081L121.675 37.7671ZM122.101 36.6591L123.045 36.3298L113.653 9.39801L112.709 9.7273L111.765 10.0566L121.157 36.9884L122.101 36.6591ZM112.709 9.7273V10.7273H120.346V9.7273V8.7273H112.709V9.7273ZM120.346 9.7273L119.383 9.99864L124.803 29.2259L125.766 28.9546L126.728 28.6832L121.308 9.45596L120.346 9.7273ZM125.766 28.9546V29.9546H126.039V28.9546V27.9546H125.766V28.9546ZM126.039 28.9546L127.001 29.2283L132.472 10.001L131.51 9.7273L130.548 9.45359L125.077 28.6809L126.039 28.9546ZM131.51 9.7273V10.7273H139.198V9.7273V8.7273H131.51V9.7273ZM139.198 9.7273L138.254 9.39631L128.078 38.4077L129.022 38.7387L129.965 39.0697L140.141 10.0583L139.198 9.7273ZM129.022 38.7387L128.077 38.411C127.622 39.7237 127.009 40.8471 126.248 41.7937L127.027 42.4205L127.807 43.0472C128.727 41.9029 129.444 40.5718 129.966 39.0663L129.022 38.7387ZM127.027 42.4205L126.241 41.803C125.515 42.7271 124.596 43.4404 123.466 43.9448L123.874 44.858L124.282 45.7711C125.697 45.1392 126.88 44.2275 127.814 43.0379L127.027 42.4205ZM123.874 44.858L123.46 43.9479C122.348 44.4539 120.963 44.7273 119.272 44.7273V45.7273V46.7273C121.171 46.7273 122.854 46.4212 124.288 45.7681L123.874 44.858Z" fill="black" mask="url(#path-1-outside-1_702_2672)"/>
</svg>
